Coordinates
version=1
nRows=6
nColumns=63
inDegrees=yes

Units are S.I. units (second, meters, Newtons, ...)
If the header above contains a line with 'inDegrees', this indicates whether rotational values are in degrees (yes) or radians (no).

endheader
time	pelvis_tilt	pelvis_list	pelvis_rotation	pelvis_tx	pelvis_ty	pelvis_tz	hip_flexion_r	hip_adduction_r	hip_rotation_r	knee_angle_r	knee_angle_r_beta	ankle_angle_r	subtalar_angle_r	mtp_angle_r	hip_flexion_l	hip_adduction_l	hip_rotation_l	knee_angle_l	knee_angle_l_beta	ankle_angle_l	subtalar_angle_l	mtp_angle_l	L5_S1_Flex_Ext	L5_S1_Lat_Bending	L5_S1_axial_rotation	L4_L5_Flex_Ext	L4_L5_Lat_Bending	L4_L5_axial_rotation	L3_L4_Flex_Ext	L3_L4_Lat_Bending	L3_L4_axial_rotation	L2_L3_Flex_Ext	L2_L3_Lat_Bending	L2_L3_axial_rotation	L1_L2_Flex_Ext	L1_L2_Lat_Bending	L1_L2_axial_rotation	L1_T12_Flex_Ext	L1_T12_Lat_Bending	L1_T12_axial_rotation	Abs_r3	Abs_r2	Abs_r1	Abs_t1	Abs_t2	neck_flexion	neck_bending	neck_rotation	arm_flex_r	arm_add_r	arm_rot_r	elbow_flex_r	pro_sup_r	wrist_flex_r	wrist_dev_r	arm_flex_l	arm_add_l	arm_rot_l	elbow_flex_l	pro_sup_l	wrist_flex_l	wrist_dev_l
      4.33898305	      9.90240451	     -2.86888707	     82.72154406	      0.25921971	      0.89971779	      0.61136501	      4.41145066	      9.34574964	    -24.45789405	      2.92195186	      0.05099768	     -0.99576618	     -8.51569316	      0.00000000	      1.84202837	     -9.56970607	     29.66603087	      3.46607239	      0.06049438	    -22.59766963	     15.99802943	      0.00000000	     -0.12400308	      1.16338476	      0.65825732	     -0.23028612	      1.54730173	      0.69939840	     -0.20372466	      2.82865371	      0.69939840	     -0.14172312	      2.82865371	      0.57597516	     -0.11514926	      2.37237421	      0.53483407	     -0.07085536	      1.80208300	      0.49369299	     -0.88574160	     13.16044111	      3.66102974	      0.00000000	      0.00000000	     19.58531013	     -3.12503093	     -5.90868971	      2.75708767	    -20.98758231	     50.84127313	     23.85951174	     80.94408916	     -8.10598358	      3.06641655	     11.56289336	     -5.52634216	    147.62764483	      8.61310011	      4.74358231	    -14.42125854	    -11.80398003
      4.35593220	      9.91062954	     -2.89499061	     82.71723949	      0.25921851	      0.89983601	      0.61135280	      4.43243139	      9.39406582	    -23.39485834	      2.85509619	      0.04983083	     -0.98251613	    -10.12980582	      0.00000000	      1.85634398	     -9.54591135	     30.38942781	      3.34792416	      0.05843230	    -22.96337468	     16.19420584	      0.00000000	     -0.12161671	      1.16224902	      0.67608168	     -0.22585439	      1.54579119	      0.71833679	     -0.19980409	      2.82589226	      0.71833679	     -0.13899573	      2.82589226	      0.59157147	     -0.11293327	      2.37005819	      0.54931637	     -0.06949179	      1.80032373	      0.50706126	     -0.86869598	     13.14759332	      3.76016348	      0.00000000	      0.00000000	     19.56826297	     -3.11936999	     -6.08277742	      2.79283950	    -20.92270615	     51.15081517	     23.65276471	     80.35153559	     -8.18425181	      2.88564382	     11.61918879	     -5.65968440	    145.73256698	      9.04046336	      5.13799244	    -14.04524830	    -11.92698228
      4.37288136	      9.93274683	     -2.90740291	     82.57577757	      0.25936926	      0.89997827	      0.61140199	      4.44027600	      9.45940807	    -22.15357523	      2.82531444	      0.04931104	     -0.91622283	    -11.94707542	      0.00000000	      1.79607472	     -9.52313194	     31.07746648	      3.19445740	      0.05575380	    -24.58009763	     16.46974087	      0.00000000	     -0.12179176	      1.16316584	      0.71743799	     -0.22617949	      1.54701057	      0.76227786	     -0.20009169	      2.82812143	      0.76227786	     -0.13919581	      2.82812143	      0.62775824	     -0.11309583	      2.37192778	      0.58291837	     -0.06959181	      1.80174389	      0.53807849	     -0.86994640	     13.15796463	      3.99017487	      0.00000000	      0.00000000	     19.60253984	     -3.22284016	     -6.34561668	      2.60794417	    -20.79560284	     50.05134384	     23.60635106	     81.31723755	     -8.00441406	      3.05860153	     11.65264331	     -5.68947341	    144.98344584	      9.20151686	      5.21753138	    -13.67506251	    -11.95646107
      4.38983051	     10.01487089	     -2.88553609	     82.59820723	      0.25922829	      0.90013063	      0.61148114	      4.44980296	      9.51828130	    -22.47671548	      2.90976819	      0.05078504	     -0.55658612	    -12.29665697	      0.00000000	      1.73360475	     -9.54749464	     32.26579262	      3.09189753	      0.05396379	    -26.73980091	     16.68822791	      0.00000000	     -0.12421366	      1.17242732	      0.69669570	     -0.23067718	      1.55932833	      0.74023918	     -0.20407061	      2.85063978	      0.74023918	     -0.14196379	      2.85063978	      0.60960874	     -0.11534480	      2.39081379	      0.56606526	     -0.07097568	      1.81608992	      0.52252178	     -0.88724572	     13.26273231	      3.87481248	      0.00000000	      0.00000000	     19.77103687	     -3.32865986	     -6.28381540	      2.85191332	    -20.79598420	     51.06585935	     23.33059090	     80.49034012	     -8.05251881	      2.82513105	     11.61017775	     -5.73434533	    143.60313400	      9.35589128	      5.90407213	    -13.60168544	    -11.98204692
      4.40677966	     10.11738750	     -2.88148315	     82.49277910	      0.25937619	      0.90020286	      0.61147731	      4.41718533	      9.64733733	    -21.93957223	      2.92829659	      0.05110842	     -0.67716835	    -13.41257368	      0.00000000	      1.60687139	     -9.62626016	     33.48760244	      2.98786083	      0.05214801	    -28.69419631	     16.52824441	      0.00000000	     -0.12195363	      1.18322208	      0.71205791	     -0.22648009	      1.57368536	      0.75656153	     -0.20035762	      2.87688616	      0.75656153	     -0.13938081	      2.87688616	      0.62305067	     -0.11324614	      2.41282646	      0.57854705	     -0.06968431	      1.83281100	      0.53404343	     -0.87110261	     13.38484477	      3.96025248	      0.00000000	      0.00000000	     20.03252611	     -3.56734109	     -6.36947096	      2.87908670	    -20.81938056	     51.30289072	     23.27130774	     79.86350999	     -7.99243578	      2.75915242	     11.60201693	     -5.62335999	    144.59832263	      9.22045886	      5.47048240	    -13.74590477	    -11.83075976
      4.42372881	     10.25371581	     -2.86963410	     82.49805031	      0.25937964	      0.90020842	      0.61150363	      4.41950667	      9.75922632	    -22.86581410	      3.06911108	      0.05356609	     -0.54176273	    -13.08457042	      0.00000000	      1.53944545	     -9.74004384	     34.07824269	      3.03110235	      0.05290272	    -30.20898109	     16.46273629	      0.00000000	     -0.12291790	      1.19820111	      0.69258226	     -0.22827083	      1.59360748	      0.73586865	     -0.20194181	      2.91330619	      0.73586865	     -0.14048286	      2.91330619	      0.60600948	     -0.11414156	      2.44337171	      0.56272308	     -0.07023529	      1.85601353	      0.51943669	     -0.87799025	     13.55429065	      3.85193474	      0.00000000	      0.00000000	     20.29212377	     -3.74293732	     -6.30021786	      3.02591823	    -20.87961577	     51.98664974	     23.21240538	     79.31116402	     -8.04518994	      2.69091965	     11.56434307	     -5.60548416	    144.38476927	      9.18047345	      5.86270255	    -13.87430437	    -11.71009868
